<?xml version="1.0" encoding="UTF-8" standalone="no"?>
<!-- Created with Inkscape (http://www.inkscape.org/) -->

<svg
   xmlns:dc="http://purl.org/dc/elements/1.1/"
   xmlns:cc="http://creativecommons.org/ns#"
   xmlns:rdf="http://www.w3.org/1999/02/22-rdf-syntax-ns#"
   xmlns:svg="http://www.w3.org/2000/svg"
   xmlns="http://www.w3.org/2000/svg"
   xmlns:sodipodi="http://sodipodi.sourceforge.net/DTD/sodipodi-0.dtd"
   xmlns:inkscape="http://www.inkscape.org/namespaces/inkscape"
   width="644.83167"
   height="644.83002"
   id="svg3144"
   version="1.1"
   inkscape:version="0.48.0 r9654"
   sodipodi:docname="cconf.svg"
   inkscape:export-filename="/Users/philips/trees/cconf/logo/cconf.png"
   inkscape:export-xdpi="90"
   inkscape:export-ydpi="90">
  <defs
     id="defs3146" />
  <sodipodi:namedview
     inkscape:document-units="in"
     pagecolor="#ffffff"
     bordercolor="#666666"
     borderopacity="1.0"
     inkscape:pageopacity="0.0"
     inkscape:pageshadow="2"
     inkscape:zoom="0.35355339"
     inkscape:cx="180.66295"
     inkscape:cy="8.0175173"
     inkscape:current-layer="layer1"
     id="namedview3148"
     showgrid="false"
     inkscape:window-width="1276"
     inkscape:window-height="756"
     inkscape:window-x="4"
     inkscape:window-y="0"
     inkscape:window-maximized="1"
     showguides="true"
     inkscape:guide-bbox="true"
     units="in"
     fit-margin-top="0"
     fit-margin-left="0"
     fit-margin-right="0"
     fit-margin-bottom="0" />
  <metadata
     id="metadata3150">
    <rdf:RDF>
      <cc:Work
         rdf:about="">
        <dc:format>image/svg+xml</dc:format>
        <dc:type
           rdf:resource="http://purl.org/dc/dcmitype/StillImage" />
        <dc:title />
      </cc:Work>
    </rdf:RDF>
  </metadata>
  <g
     inkscape:label="Layer 1"
     inkscape:groupmode="layer"
     id="layer1"
     transform="translate(-46.233666,-29.617233)">
    <path
       style="fill:#253698;fill-opacity:1"
       d="m 58.988616,71.182713 c -2.76905,-0.048 -3.91058,-0.1393 -4.02715,-0.3236 -0.2063,-0.3262 -0.20881,-2.902 -0.002,-3.2118 0.16136,-0.243 51.426074,-0.3001 199.819184,-0.2231 39.10056,0.021 101.19872,0.044 137.99589,0.054 86.70096,0.021 217.80448,0.091 227.72455,0.1191 4.26131,0.014 14.95649,0.03 23.76705,0.045 18.35162,0.026 23.81737,0.045 35.49339,0.1396 l 8.37595,0.068 0.0592,1.5521 c 0.0397,1.0414 -0.0236,1.6031 -0.19239,1.707 -0.13837,0.085 -3.18189,0.154 -6.76336,0.1529 -3.58149,0.01 -35.4878,-0.01 -70.90292,-0.013 -35.41512,-0.01 -107.21902,-0.046 -159.56422,-0.091 -97.64239,-0.082 -172.73819,-0.095 -235.99611,-0.039 -19.75189,0.015 -61.87315,0.035 -93.60282,0.04 -31.729648,0 -57.831664,0.027 -58.004474,0.045 -0.1728,0.022 -2.05319,0.011 -4.17866,-0.024 z"
       id="path3845"
       inkscape:connector-curvature="0" />
    <path
       style="fill:#000000;fill-opacity:1;stroke:none"
       d="m 59.370026,65.217013 c -2.76907,-0.04 -3.91062,-0.1213 -4.02723,-0.2807 -0.20641,-0.2821 -0.20958,-2.5098 -0.003,-2.7777 0.1613,-0.2102 51.425964,-0.2463 199.819014,-0.1402 39.10057,0.023 101.19868,0.065 137.99584,0.083 86.70093,0.042 217.80439,0.1347 227.72447,0.162 4.26132,0 14.95649,0.03 23.76705,0.045 18.35161,0.025 23.81737,0.045 35.4934,0.1306 l 8.37597,0.061 0.0596,1.3423 c 0.04,0.9008 -0.0232,1.3865 -0.19195,1.4764 -0.13834,0.074 -3.18185,0.1322 -6.76331,0.1303 -3.58148,0 -35.48778,-0.016 -70.90289,-0.03 -35.4151,-0.015 -107.21898,-0.068 -159.56417,-0.1196 -97.64236,-0.096 -172.73812,-0.1267 -235.99599,-0.095 -19.75188,0.01 -61.87312,0.014 -93.60277,0.011 -31.729638,0 -57.831634,0.01 -58.004424,0.028 -0.1728,0.019 -2.05319,0.011 -4.17867,-0.023 z"
       id="path3845-5"
       inkscape:connector-curvature="0" />
    <path
       style="fill:#253698;fill-opacity:1"
       d="m 679.7595,640.17732 c 2.76906,0.048 3.91058,0.1393 4.02715,0.3235 0.20631,0.3262 0.20882,2.9021 0.003,3.2118 -0.16135,0.2431 -51.42609,0.3002 -199.81917,0.2232 -39.10057,-0.021 -101.19873,-0.044 -137.99589,-0.054 -86.70098,-0.022 -217.80448,-0.091 -227.72456,-0.1191 -4.26132,-0.014 -14.95649,-0.03 -23.767058,-0.046 -18.351606,-0.026 -23.817356,-0.045 -35.493376,-0.1397 l -8.37595,-0.068 -0.0592,-1.5523 c -0.0397,-1.0414 0.0236,-1.6031 0.19238,-1.7069 0.13836,-0.085 3.18189,-0.154 6.76336,-0.1529 3.58149,-0.01 35.487776,0.01 70.902904,0.013 35.41512,0.01 107.21903,0.046 159.56424,0.091 97.64239,0.082 172.73816,0.095 235.99609,0.039 19.75189,-0.015 61.87316,-0.035 93.60282,-0.04 31.72967,0 57.83168,-0.027 58.00449,-0.045 0.1728,-0.022 2.05319,-0.011 4.17865,0.024 z"
       id="path3845-9"
       inkscape:connector-curvature="0" />
    <path
       style="fill:#000000;fill-opacity:1;stroke:none"
       d="m 679.8243,647.19082 c 2.7694,0.041 3.91108,0.1214 4.02771,0.2808 0.20643,0.2821 0.20961,2.5098 0.004,2.7777 -0.16131,0.2102 -51.43205,0.2461 -199.84262,0.1401 -39.10517,-0.023 -101.21063,-0.065 -138.01212,-0.082 -86.71119,-0.042 -217.83013,-0.1347 -227.75138,-0.1621 -4.26182,-0.014 -14.95826,-0.03 -23.769858,-0.045 -18.353776,-0.026 -23.820176,-0.045 -35.497596,-0.1307 l -8.37694,-0.061 -0.0597,-1.3424 c -0.04,-0.9006 0.0232,-1.3865 0.19197,-1.4763 0.13837,-0.074 3.18222,-0.1323 6.76411,-0.1304 3.5819,0 35.491966,0.016 70.911254,0.03 35.41928,0.015 107.23164,0.068 159.58303,0.1206 97.65388,0.096 172.75849,0.1267 236.02385,0.095 19.75422,-0.01 61.88042,-0.014 93.61382,-0.011 31.73339,0 57.83847,-0.01 58.01128,-0.028 0.17282,-0.019 2.05344,-0.011 4.17916,0.023 z"
       id="path3845-5-8"
       inkscape:connector-curvature="0" />
    <path
       style="fill:#596fc5;fill-opacity:1"
       d="m 363.91,504.56852 c -2.05299,-0.1236 -3.81063,-0.273 -3.90583,-0.3321 -0.0951,-0.059 -1.07769,-0.1609 -2.1833,-0.2264 -1.10559,-0.065 -2.45694,-0.2554 -3.00296,-0.4222 -0.54603,-0.1669 -1.55818,-0.3062 -2.24918,-0.3097 -0.69103,-6e-4 -2.00987,-0.2028 -2.93078,-0.443 -0.9209,-0.2403 -2.33381,-0.5207 -3.13983,-0.6234 -0.806,-0.1028 -2.45452,-0.3744 -3.66337,-0.6036 -1.20886,-0.2294 -2.85731,-0.5288 -3.66325,-0.6655 -0.80593,-0.1366 -2.03036,-0.433 -2.72094,-0.6588 -0.6906,-0.2256 -2.43307,-0.6402 -3.87217,-0.9213 -2.7613,-0.5395 -7.04677,-1.6328 -7.68143,-1.9599 -0.20702,-0.1064 -0.73152,-0.2491 -1.16558,-0.3166 -1.41046,-0.2196 -10.38804,-3.059 -12.29068,-3.8873 -0.63291,-0.2755 -2.04098,-0.8374 -3.129,-1.2484 -3.74336,-1.4146 -10.6366,-4.7097 -14.23579,-6.8048 -0.97785,-0.5693 -2.39187,-1.3515 -3.14223,-1.7381 -1.70873,-0.8807 -5.43775,-3.306 -5.8382,-3.7972 -0.16513,-0.2026 -0.77685,-0.6088 -1.35937,-0.9029 -0.58253,-0.2939 -1.67068,-1.0272 -2.41814,-1.6294 -0.74744,-0.602 -2.21067,-1.6747 -3.2516,-2.3833 -1.04092,-0.7086 -2.69792,-2.0511 -3.68219,-2.9836 -0.98428,-0.9324 -2.07636,-1.8559 -2.42683,-2.0522 -0.9507,-0.5324 -7.90485,-7.1273 -8.55029,-8.1085 -0.30756,-0.4676 -1.51885,-1.8415 -2.69178,-3.0531 -3.00207,-3.1009 -4.76662,-5.0536 -5.22026,-5.7765 -0.21434,-0.3417 -0.73394,-1.0457 -1.15472,-1.565 -0.42076,-0.5189 -1.09683,-1.4667 -1.50236,-2.1059 -0.40553,-0.6393 -0.90387,-1.2998 -1.10742,-1.468 -0.39004,-0.3221 -2.6373,-3.6419 -3.81175,-5.6308 -0.3814,-0.6458 -0.8648,-1.363 -1.07426,-1.5939 -0.88558,-0.9757 -5.85202,-9.3702 -5.85102,-9.8897 2.1e-4,-0.106 -0.56123,-1.1084 -1.24761,-2.2278 -0.68642,-1.1192 -1.72855,-3.237 -2.31586,-4.7062 -0.58731,-1.4689 -1.71224,-4.0386 -2.49984,-5.71 -0.7876,-1.6715 -1.57095,-3.5577 -1.74077,-4.1915 -0.16983,-0.6337 -0.55461,-1.8124 -0.85509,-2.6192 -0.78689,-2.1127 -3.31354,-10.9471 -3.83506,-13.4091 -0.24405,-1.1522 -0.76037,-3.3676 -1.14736,-4.9231 -0.40939,-1.6456 -0.84561,-4.186 -1.04315,-6.0747 -0.18673,-1.7855 -0.51828,-3.789 -0.73679,-4.4521 -0.22642,-0.6872 -0.40004,-1.8131 -0.40373,-2.6183 -0.003,-0.777 -0.155,-1.7898 -0.33655,-2.2509 -0.21234,-0.5392 -0.42282,-2.2578 -0.59007,-4.8174 -0.14296,-2.1886 -0.36004,-4.8274 -0.48237,-5.8642 -0.8082,-6.8496 -0.63872,-27.2952 0.289,-34.8649 0.11995,-0.9787 0.22308,-2.0622 0.22919,-2.4076 0.0308,-1.7425 0.60514,-6.4647 0.81725,-6.7193 0.13347,-0.1602 0.19501,-0.5433 0.13673,-0.8514 -0.11685,-0.6178 0.76303,-7.281 1.1151,-8.4446 0.12191,-0.4028 0.31864,-1.3448 0.43718,-2.0932 0.91494,-5.7758 5.18614,-20.7908 7.26322,-25.533 0.27723,-0.6329 0.89121,-2.1749 1.36442,-3.4267 2.02545,-5.3581 5.4133,-12.1835 9.25426,-18.6447 0.5471,-0.9203 1.15964,-2.0027 1.36119,-2.4055 0.20156,-0.4027 0.76811,-1.2496 1.25897,-1.8821 0.49089,-0.6326 1.08482,-1.5267 1.31986,-1.9869 0.23504,-0.4601 0.99587,-1.5128 1.69076,-2.3392 0.69488,-0.8264 1.3255,-1.6967 1.40138,-1.9343 0.0758,-0.2374 0.21176,-0.4316 0.30195,-0.4313 0.0902,1e-4 0.44372,-0.4469 0.7856,-0.9933 0.72296,-1.1553 4.64183,-5.697 4.91535,-5.6966 0.10196,2e-4 0.43126,-0.494 0.73177,-1.098 0.62191,-1.2501 10.59342,-11.2959 14.66097,-14.7702 1.26236,-1.0784 2.52151,-2.2285 2.79813,-2.556 0.27662,-0.3273 0.63803,-0.595 0.80313,-0.5947 0.16509,3e-4 0.69922,-0.3603 1.18699,-0.8016 0.48775,-0.4412 1.50012,-1.2086 2.2497,-1.7053 0.74956,-0.4969 1.78757,-1.2526 2.30667,-1.6796 1.00111,-0.8231 4.17387,-3.0174 5.87372,-4.0625 0.56031,-0.3443 1.45511,-0.908 1.98843,-1.2525 0.53334,-0.3445 1.45869,-0.9407 2.05636,-1.3249 0.59766,-0.3843 1.98336,-1.1733 3.07933,-1.7536 1.09599,-0.5802 2.55146,-1.386 3.23441,-1.7907 6.37664,-3.7784 20.82935,-9.8746 28.20368,-11.8963 0.74903,-0.2054 2.02184,-0.5723 2.82851,-0.8154 2.27587,-0.6859 5.39625,-1.3849 11.20786,-2.5105 7.99543,-1.5487 10.41801,-1.9322 12.14905,-1.923 0.86378,7e-4 2.32459,-0.1161 3.24625,-0.2685 8.42513,-1.3919 31.89726,-0.9876 41.98372,0.7233 0.97863,0.166 2.67435,0.3922 3.76828,0.5029 1.0939,0.1105 3.30761,0.4831 4.91934,0.8278 1.61172,0.3448 3.44856,0.6913 4.08184,0.7701 0.6333,0.079 2.28161,0.4597 3.6629,0.8464 1.38131,0.387 3.01492,0.8087 3.63023,0.9378 0.96387,0.2016 6.24894,1.9245 10.70526,3.4898 2.09185,0.7347 8.11553,3.197 9.52027,3.8915 0.69037,0.3414 1.91423,0.9272 2.71972,1.302 1.78167,0.8287 7.95639,4.093 8.6813,4.5893 0.28755,0.1969 0.78688,0.4223 1.1096,0.5011 0.32272,0.078 0.97225,0.4235 1.44339,0.7663 0.47114,0.3427 0.96968,0.6233 1.10789,0.6235 0.1382,4e-4 0.61825,0.2668 1.06682,0.5922 0.44852,0.3253 1.28615,0.8647 1.86135,1.1984 0.57521,0.3337 1.70452,1.0902 2.50957,1.6811 0.80506,0.5909 1.99197,1.3867 2.63759,1.7687 0.64563,0.3819 2.07722,1.485 3.18135,2.4512 1.10415,0.9665 2.1022,1.7573 2.21794,1.7577 0.52134,-5e-4 7.34341,6.0166 7.85273,6.9244 0.11477,0.2046 0.67916,0.7267 1.25416,1.1604 1.84594,1.3917 9.98695,9.7557 11.22604,11.5335 0.64306,0.9226 1.74333,2.2906 2.44499,3.0401 0.70165,0.7495 1.23002,1.4813 1.17415,1.6259 -0.0559,0.1449 0.32009,0.6866 0.83545,1.204 0.51538,0.5175 1.30857,1.5315 1.76261,2.2537 0.45406,0.7222 1.10962,1.7375 1.45679,2.2565 2.22833,3.331 2.90546,4.4125 3.03694,4.8509 0.0817,0.2723 0.41325,0.7784 0.73688,1.1245 0.67099,0.7176 1.83288,2.6641 3.31617,5.5555 0.56186,1.0952 1.37134,2.6516 1.7989,3.4585 0.42752,0.8071 1.05926,2.0333 1.40385,2.725 0.34458,0.6917 0.80139,1.4827 1.0151,1.7579 0.21369,0.275 0.38818,0.6906 0.38774,0.9237 -6.8e-4,0.4147 1.27131,3.4574 2.10131,5.0259 0.23024,0.4352 0.36331,0.8802 0.29568,0.9892 -0.0677,0.1091 0.0116,0.4131 0.17597,0.6759 2.13826,3.4162 5.7448,20.8468 5.73351,27.7104 -0.007,4.567 1.84917,4.0858 -15.66742,4.0602 -8.37326,-0.017 -23.61076,0.018 -33.8611,0.079 -10.25033,0.055 -18.8961,0.09 -19.21279,0.077 -0.31669,-0.014 -0.83496,-0.018 -1.15169,-0.012 -0.31674,0.01 -4.15665,0.014 -8.53317,0.01 -10.42662,-0.01 -10.77184,-0.08 -11.10478,-2.4013 -0.0743,-0.5184 -0.26316,-1.3986 -0.41962,-1.9557 -0.15649,-0.5572 -0.38051,-1.5486 -0.49787,-2.203 -2.23079,-12.439 -10.27669,-25.3541 -18.80822,-30.1907 -1.42995,-0.8105 -2.83514,-1.6557 -3.12265,-1.8781 -0.28749,-0.2223 -0.75816,-0.4747 -1.0459,-0.561 -0.28778,-0.086 -0.82641,-0.331 -1.19699,-0.5445 -0.37058,-0.2134 -1.02974,-0.4526 -1.46479,-0.5316 -0.43505,-0.078 -1.35594,-0.3818 -2.0464,-0.6728 -4.91423,-2.0725 -20.78058,-3.5675 -25.54241,-2.4068 -0.46088,0.1124 -1.63915,0.3036 -2.61834,0.4248 -2.43312,0.3014 -7.36141,1.3996 -8.96058,1.997 -0.72297,0.2701 -1.47724,0.4919 -1.67616,0.4929 -0.19893,-4e-4 -0.91733,0.2824 -1.59646,0.6251 -0.67912,0.3428 -1.53671,0.6226 -1.9057,0.6219 -0.39974,3e-4 -0.82096,0.1638 -1.04201,0.4071 -0.20409,0.2246 -1.09124,0.7058 -1.9715,1.0696 -3.00021,1.2391 -7.07991,3.8863 -9.82226,6.3731 -2.65659,2.4089 -8.86303,9.3237 -9.60023,10.6959 -0.35401,0.659 -1.00136,1.6643 -1.43854,2.2343 -0.43718,0.5697 -1.13425,1.7462 -1.54904,2.6145 -1.53493,3.2127 -2.14138,4.5453 -2.76536,6.0767 -0.35171,0.863 -0.98468,2.4166 -1.40661,3.4523 -1.17966,2.8958 -3.13479,10.3976 -3.76367,14.4416 -1.02663,6.6013 -1.44106,9.9786 -1.42198,11.588 0.0106,0.8809 -0.0968,2.4494 -0.23847,3.4857 -0.34241,2.5062 -0.37325,26.1088 -0.037,28.374 0.12824,0.864 0.31936,2.3249 0.42473,3.2464 0.25982,2.2726 0.93681,6.831 1.43295,9.6486 0.83068,4.7174 5.67281,19.3749 6.6865,20.2406 0.22444,0.1917 0.40759,0.6015 0.40699,0.9107 -5.9e-4,0.3093 0.17111,0.8128 0.38155,1.1189 0.21044,0.3061 0.83363,1.4055 1.38487,2.4431 0.55123,1.0377 1.35362,2.3584 1.78307,2.935 0.42949,0.5768 0.89156,1.2642 1.02687,1.5276 1.00972,1.9657 6.66766,8.099 9.41833,10.2094 1.0925,0.8383 2.69195,2.1181 3.55434,2.8442 0.86237,0.7261 1.8975,1.4577 2.30027,1.6259 0.40277,0.1681 0.87605,0.4336 1.05174,0.59 0.29971,0.2667 2.53693,1.5669 4.17749,2.4279 1.58524,0.8319 4.55174,2.0672 5.54468,2.309 0.57559,0.14 1.32893,0.3996 1.6741,0.5768 0.34517,0.1771 1.00437,0.3903 1.46489,0.4739 0.46053,0.083 2.2031,0.4494 3.87238,0.8128 6.36037,1.3846 17.65495,1.3709 24.85857,-0.03 7.66645,-1.491 16.76066,-6.0246 21.35259,-10.6445 2.83254,-2.85 5.73869,-6.9202 7.09946,-9.9436 0.33484,-0.7438 0.8252,-1.7772 1.08972,-2.2962 2.11179,-4.1444 4.5033,-14.1591 4.52663,-18.9561 0.007,-1.5568 -1.02622,-1.4576 14.27345,-1.3696 7.5241,0.043 18.48579,0.1846 24.35927,0.314 5.87346,0.1293 17.08654,0.3465 24.91791,0.4825 27.22711,0.4728 26.65057,0.4288 26.34716,2.0063 -0.09,0.4679 -0.14394,1.5574 -0.11986,2.4213 0.0242,0.8639 -0.0557,2.1358 -0.17736,2.8265 -0.2703,1.5352 -0.75758,4.8614 -1.04273,7.1178 -0.54284,4.2952 -3.29067,14.8576 -4.90046,18.8367 -0.2328,0.5753 -0.66047,1.7525 -0.9504,2.6156 -0.59981,1.7858 -2.29701,5.7571 -2.72487,6.3758 -0.15688,0.2269 -0.28561,0.6129 -0.28609,0.8579 -4.7e-4,0.245 -0.2725,0.8191 -0.60453,1.2755 -0.33202,0.4565 -0.66212,1.0118 -0.73354,1.2341 -0.35371,1.1007 -1.58087,3.6482 -2.15957,4.4836 -0.35861,0.5176 -1.33493,2.2983 -2.16962,3.9573 -0.92826,1.845 -2.1119,3.7979 -3.04804,5.0291 -0.84174,1.1071 -1.88683,2.5733 -2.3224,3.2584 -0.43556,0.685 -1.42244,1.9981 -2.19305,2.9179 -0.77063,0.9199 -2.09611,2.6134 -2.94555,3.7635 -2.31768,3.1381 -10.81523,11.9764 -14.56492,15.1494 -1.739,1.4714 -3.49228,3.0244 -3.89621,3.451 -0.40393,0.4268 -1.3949,1.2273 -2.20216,1.779 -0.80726,0.5519 -2.03407,1.4894 -2.72626,2.0835 -0.69218,0.5941 -1.68297,1.2982 -2.20175,1.5647 -0.51878,0.2665 -1.17687,0.7339 -1.46244,1.039 -0.28556,0.3047 -1.37063,1.0363 -2.41127,1.6255 -1.04063,0.5891 -2.60983,1.547 -3.4871,2.1285 -0.87726,0.5814 -2.52826,1.5951 -3.66889,2.2525 -1.14063,0.6573 -2.30969,1.3312 -2.59795,1.4975 -0.57899,0.3336 -2.87181,1.4884 -6.39299,3.2196 -2.81439,1.3837 -8.1525,3.5881 -9.01149,3.7211 -0.34562,0.054 -1.14718,0.3584 -1.78122,0.6773 -1.31916,0.6633 -9.58419,3.2166 -12.15259,3.7542 -0.40326,0.085 -0.96898,0.2557 -1.25715,0.3806 -0.50612,0.2195 -6.9754,1.5869 -9.1127,1.9261 -0.57604,0.091 -1.5658,0.2609 -2.19946,0.3767 -4.10612,0.7496 -12.74587,1.9045 -13.99633,1.8707 -0.53871,-0.015 -1.59216,0.067 -2.341,0.1791 -1.3935,0.2103 -13.00719,0.7052 -14.51762,0.6182 -6.10768,0.1985 -8.51378,0.053 -12.7741,-0.2085 z m -100.98417,-45.7164 c 7e-5,-0.037 -0.25855,-0.2971 -0.57475,-0.577 -0.57486,-0.5087 -0.57486,-0.5087 -0.0684,0.068 0.47344,0.5391 0.64275,0.6731 0.64307,0.5089 z m -2.92593,-2.9481 c 9e-5,-0.044 -0.1645,-0.2088 -0.36574,-0.3672 -0.33163,-0.2611 -0.33903,-0.2537 -0.0793,0.079 0.27287,0.3494 0.44462,0.4607 0.44495,0.2883 z m -6.68424,-8.5985 c 9e-5,-0.043 -0.1645,-0.2086 -0.36574,-0.3672 -0.33163,-0.261 -0.33904,-0.2537 -0.0793,0.079 0.27289,0.3494 0.44463,0.4607 0.44496,0.2883 z"
       id="path4047"
       inkscape:connector-curvature="0"
       sodipodi:nodetypes="cscscsscscscscsscsccssssscsccssssssssssssssssssssssssssssssssssssssssssssssssssssssssssssssscsssssssssscsscssccssccccsssssccsssssssssscsssssssscssscsssssssccssscsccsssssscssscscscscsccssssssscssssccccsccccccccccsssssccssccs" />
    <flowRoot
       xml:space="preserve"
       id="flowRoot3122"
       style="font-size:24px;font-style:normal;font-weight:normal;line-height:125%;letter-spacing:0px;word-spacing:0px;fill:#000000;fill-opacity:1;stroke:none;font-family:Sans"
       transform="matrix(1.3202232,0,0,1.3202232,-15.476454,-270.50358)"><flowRegion
         id="flowRegion3124"><rect
           id="rect3126"
           width="642"
           height="116"
           x="44"
           y="603" /></flowRegion><flowPara
         id="flowPara3128"
         style="font-size:72px;font-style:normal;font-variant:normal;font-weight:normal;font-stretch:normal;font-family:Georgia;-inkscape-font-specification:Georgia">CONFERENCE</flowPara></flowRoot>    <flowRoot
       xml:space="preserve"
       id="flowRoot3122-9"
       style="font-size:24px;font-style:normal;font-weight:normal;text-align:center;line-height:125%;letter-spacing:0px;word-spacing:0px;text-anchor:middle;fill:#000000;fill-opacity:1;stroke:none;font-family:Sans"
       transform="matrix(1.3202232,0,0,1.3202232,-115.79871,-734.56471)"><flowRegion
         id="flowRegion3124-5"><rect
           id="rect3126-9"
           width="642"
           height="116"
           x="44"
           y="603"
           style="text-align:center;text-anchor:middle" /></flowRegion><flowPara
         id="flowPara3128-0"
         style="font-size:72px;font-style:normal;font-variant:normal;font-weight:normal;font-stretch:normal;text-align:center;text-anchor:middle;font-family:Georgia;-inkscape-font-specification:Georgia">THE</flowPara></flowRoot>    <path
       style="fill:#000000;fill-opacity:1;stroke:#000000;stroke-width:2.82497025;stroke-linecap:butt;stroke-linejoin:miter;stroke-miterlimit:4;stroke-opacity:1;stroke-dasharray:none"
       d="m 61.49148,176.95703 616,0"
       id="path3157"
       inkscape:connector-curvature="0"
       sodipodi:nodetypes="cc" />
    <path
       style="fill:#000000;fill-opacity:1;stroke:#000000;stroke-width:2.86512709;stroke-linecap:butt;stroke-linejoin:miter;stroke-miterlimit:4;stroke-opacity:1;stroke-dasharray:none"
       d="m 55.995502,534.0685 633.637288,0"
       id="path3157-7"
       inkscape:connector-curvature="0"
       sodipodi:nodetypes="cc" />
  </g>
</svg>
